# xmcd
#
# Track frame offsets:
#   150
#   27066
#   48774
#   72571
#   88603
#   119979
#   132993
#   157152
#   178924
#   205880
#   227615
#   251496
#   267556
#   298988
#   312058
#   336278
#
# Disc length: 4773 seconds
#
# Revision: 0
# Processed by: cddbd v1.5.1PL2 Copyright (c) Steve Scherf et al.
# Submitted via: uFREEDB ActiveX Control 1.5
#
DISCID=fa12a310
DTITLE=Elias Herbie - Te Adorando
DYEAR=2006
DGENRE=Gospel and Religious
TTITLE0=01 - Sou livre
TTITLE1=02 - Teus Altares
TTITLE2=03 - Te Adorando
TTITLE3=04 - Segurança
TTITLE4=05 - Minha casa e eu
TTITLE5=06 - Amigo Incomparável
TTITLE6=07 - Custe o que custar
TTITLE7=08 - Ele Virá
TTITLE8=09 - Play Back
TTITLE9=10 - Play Back
TTITLE10=11 - Play Back
TTITLE11=12 - Play Back
TTITLE12=13 - Play Back
TTITLE13=14 - Play Back
TTITLE14=15 - Play Back
TTITLE15=16 - Play Back
EXTD=
EXTT0=
EXTT1=
EXTT2=
EXTT3=
EXTT4=
EXTT5=
EXTT6=
EXTT7=
EXTT8=
EXTT9=
EXTT10=
EXTT11=
EXTT12=
EXTT13=
EXTT14=
EXTT15=
PLAYORDER=
